<svg xmlns="http://www.w3.org/2000/svg" width="1100" height="460" viewBox="0 0 1100 460"><rect x="10" y="10" width="1080" height="440" rx="24" fill="white" stroke="#102f66" stroke-width="5"/><g font-family="DejaVu Sans, sans-serif" fill="#102f66"><text x="550" y="72" text-anchor="middle" font-size="38" font-weight="700">Добавляем условие if</text><defs><marker id="a" markerWidth="10" markerHeight="10" refX="8" refY="3" orient="auto"><path d="M0,0 L0,6 L9,3 z" fill="#12a6a0"/></marker></defs><rect x="130" y="175" width="130" height="58" rx="8" fill="#eef7ff" stroke="#1673c8" stroke-width="3"/><text x="195.0" y="212" text-anchor="middle" font-size="22" font-weight="700">-2</text><rect x="280" y="175" width="130" height="58" rx="8" fill="#eef7ff" stroke="#1673c8" stroke-width="3"/><text x="345.0" y="212" text-anchor="middle" font-size="22" font-weight="700">0</text><rect x="430" y="175" width="130" height="58" rx="8" fill="#d4f4f1" stroke="#1673c8" stroke-width="3"/><text x="495.0" y="212" text-anchor="middle" font-size="22" font-weight="700">3</text><rect x="580" y="175" width="130" height="58" rx="8" fill="#d4f4f1" stroke="#1673c8" stroke-width="3"/><text x="645.0" y="212" text-anchor="middle" font-size="22" font-weight="700">5</text><path d="M730 205 L790 205" stroke="#12a6a0" stroke-width="5" marker-end="url(#a)"/><rect x="810" y="175" width="120" height="58" rx="8" fill="#d4f4f1" stroke="#1673c8" stroke-width="3"/><text x="870.0" y="212" text-anchor="middle" font-size="22" font-weight="700">3</text><rect x="950" y="175" width="120" height="58" rx="8" fill="#d4f4f1" stroke="#1673c8" stroke-width="3"/><text x="1010.0" y="212" text-anchor="middle" font-size="22" font-weight="700">5</text><text x="550" y="300" text-anchor="middle" font-size="25">[n for n in numbers if n &gt; 0]</text><text x="550" y="420" text-anchor="middle" font-size="24">Условие пропускает только подходящие элементы</text></g></svg>